/* XPM */
static char * stock_music_xpm[] = {
"128 128 4 1",
" 	c None",
".	c #000000",
"+	c #F0F0F0",
"@	c #EEEEEE",
"                                                                                                                                ",
"                                                                                                                                ",
"                                                                                                                                ",
"                                                                                                                                ",
"                                                                                 ................                               ",
"                                                                        .........++++++++++++++++...........                    ",
"                                                                   .....++++++++++++++++++++++++++++++++++++......              ",
"                                                               ....+++++++++++++++++++++++++++++++++++++++++++++++...           ",
"                                                           ....+++++++++++++++++++++++++++++++++++++++++++++++++++++.           ",
"                                                         ..+++++++++++++++++++++++++++++++++++++++++++++++++++++++++.           ",
"                                                      ...+++++++++++++++++++++++++++++++++++++++++++++++++++++++++++.           ",
"                                                    ..++++++++++++++++++++++++++++++++++++++++++++++++++++++++++++++.           ",
"                                                  ..++++++++++++++++++++++++++++++++++++++++++++++++++++++++++++++++.           ",
"                                                ..++++++++++++++++++++++++++++++++++++++++++++++++++++++++++++++++++.           ",
"                                              ..++++++++++++++++++++++++++++++++++++++++++++++++++++++++++++++++++++.           ",
"                                            ..++++++++++++++++++++++++++++++++++++++++++++++++++++++++++++++++++++++.           ",
"                                           .++++++++++++++++++++++++++++++++++++++++++++++++++++++++++++++++++++++++.           ",
"                                          .+++++++++++++++++++++++++++++++++++++++++++++++++++++++++++++++++++++++++.           ",
"                                         .++++++++++++++++++++++++++++++++++++++++++++++++++++++++++++++++++++++++++.           ",
"                                         .++++++++++++++++++++++++++++++++++++++++++++++++++++++++++++++++++++++++++.           ",
"                                         .++++++++++++++++++++++++++++++++++++++++++++++++++++++++++++++++++++++++++.           ",
"                                         .++++++++++++++++++++++++++++++++++++++++++++++++++++++++++++++++++++++++++.           ",
"                                         .++++++++++++++++++++++++++++++++++++++++++++++++++++++++++++++++++++++++++.           ",
"                                         .++++++++++++++++++++++++++++++++++++++++++++++++++++++++++++++++++++++++++.           ",
"                                         .++++++++++++++++++++++++++++++++++++++++++++++++++++++++++++++++++++++++++.           ",
"                                         .++++++++++++++++++++++++++++++++++++++++++++++++++++++++++++++++++++++++++.           ",
"                                         .++++++++++++++++++++++++++++++++++++++++++++++++++++++++++++++++++++++++++.           ",
"                                         .++++++++++++++++++++++++++++++++++++++++++++++++++++++++++++++++++++++++++.           ",
"                                         .++++++++++++++++++++++++++++++++++++++++++++++++++++++++++++++++++++++++++.           ",
"                                         .++++++++++++++++++++++++++++++++++++++++++++++++++++++++++++++++++++++++++.           ",
"                                         .++++++++++++++++++++++++++++++++++++++++++++++++++++++++++++++++++++++++++.           ",
"                                         .++++++++++++++++++++++++++++++++++++++++++++++++++++++++++++++++++++++++++.           ",
"                                         .++++++++++++++++++++++++++++++++++++++++++++++++++++++++++++++++++++++++++.           ",
"                                         .++++++++++++++++++++++++++++++++++++++++++++++++++++++++++++++++++++++++++.           ",
"                                         .++++++++++++++++++++++++++++++++++++++++++++++++++++++++++++++++++++++++++.           ",
"                                         .+++++++++++++++++++++++++++++++++++++...................++++++++++++++++++.           ",
"                                         .+++++++++++++++++++++++++++++........                   ........++++++++++.           ",
"                                         .+++++++++++++++++++++++++....                                  .++++++++++.           ",
"                                         .++++++++++++++++++++++...                                      .++++++++++.           ",
"                                         .+++++++++++++++++++...                                         .++++++++++.           ",
"                                         .++++++++++++++++...                                            .++++++++++.           ",
"                                         .++++++++++++++..                                               .++++++++++.           ",
"                                         .++++++++++++..                                                 .++++++++++.           ",
"                                         .+++++++++++.                                                   .++++++++++.           ",
"                                         .++++++++++.                                                    .++++++++++.           ",
"                                         .++++++++++.                                                    .++++++++++.           ",
"                                         .++++++++++.                                                    .++++++++++.           ",
"                                         .++++++++++.                                                    .++++++++++.           ",
"                                         .++++++++++.                                                    .++++++++++.           ",
"                                         .++++++++++.                                                    .++++++++++.           ",
"                                         .++++++++++.                                                    .++++++++++.           ",
"                                         .++++++++++.                                                    .++++++++++.           ",
"                                         .++++++++++.                                                    .++++++++++.           ",
"                                         .++++++++++.                                                    .++++++++++.           ",
"                                         .++++++++++.                                                    .++++++++++.           ",
"                                         .++++++++++.                                                    .++++++++++.           ",
"                                         .++++++++++.                                                    .++++++++++.           ",
"                                         .++++++++++.                                                    .++++++++++.           ",
"                                         .++++++++++.                                                    .++++++++++.           ",
"                                         .++++++++++.                                                    .++++++++++.           ",
"                                         .++++++++++.                                                    .++++++++++.           ",
"                                         .++++++++++.                                                    .++++++++++.           ",
"                                         .++++++++++.                                                    .++++++++++.           ",
"                                         .++++++++++.                                                    .++++++++++.           ",
"                                         .++++++++++.                                                    .++++++++++.           ",
"                                         .++++++++++.                                                    .++++++++++.           ",
"                                         .++++++++++.                                                    .++++++++++.           ",
"                                         .++++++++++.                                                    .++++++++++.           ",
"                                         .++++++++++.                                                    .++++++++++.           ",
"                                         .++++++++++.                                                    .++++++++++.           ",
"                                         .++++++++++.                                                    .++++++++++.           ",
"                                         .++++++++++.                                                    .++++++++++.           ",
"                                         .++++++++++.                                                    .++++++++++.           ",
"                                         .++++++++++.                                                    .++++++++++.           ",
"                                         .++++++++++.                                                    .++++++++++.           ",
"                                         .++++++++++.                                   ...........      .++++++++++.           ",
"                                         .++++++++++.                               ....+++++++++++...   .++++++++++.           ",
"                                         .++++++++++.                              .++++++++++++++++++.. .++++++++++.           ",
"                                         .++++++++++.                            ..+++++++++++++++++++++..++++++++++.           ",
"                                         .++++++++++.                           .+++++++++++++++++++++++++++++++++++.           ",
"                                         .++++++++++.                          .++++++++++++++++++++++++++++++++++++.           ",
"                                         .++++++++++.                         .+++++++++++++++++++++++++++++++++++++.           ",
"                                         .++++++++++.                         .+++++++++++++++++++++++++++++++++++++.           ",
"                                         .++++++++++.                        .++++++++++++++++++++++++++++++++++++++.           ",
"                                         .++++++++++.                       .+++++++++++++++++++++++++++++++++++++++.           ",
"                           ....          .++++++++++.                       .+++++++++++++++++++++++++++++++++++++++.           ",
"                     ......+++@.....     .++++++++++.                       .+++++++++++++++++++++++++++++++++++++++.           ",
"                    .+++++++++++++++..   .++++++++++.                      .++++++++++++++++++++++++++++++++++++++++.           ",
"                  .+++++++++++++++++++.. .++++++++++.                      .++++++++++++++++++++++++++++++++++++++++.           ",
"                ..++++++++++++++++++++++..++++++++++.                      .++++++++++++++++++++++++++++++++++++++++.           ",
"               .++++++++++++++++++++++++++++++++++++.                      .++++++++++++++++++++++++++++++++++++++++.           ",
"              .+++++++++++++++++++++++++++++++++++++.                     .+++++++++++++++++++++++++++++++++++++++++.           ",
"             .++++++++++++++++++++++++++++++++++++++.                     .+++++++++++++++++++++++++++++++++++++++++.           ",
"             .++++++++++++++++++++++++++++++++++++++.                     .+++++++++++++++++++++++++++++++++++++++++.           ",
"            .+++++++++++++++++++++++++++++++++++++++.                     .++++++++++++++++++++++++++++++++++++++++.            ",
"            .+++++++++++++++++++++++++++++++++++++++.                     .++++++++++++++++++++++++++++++++++++++++.            ",
"           .++++++++++++++++++++++++++++++++++++++++.                      .+++++++++++++++++++++++++++++++++++++++.            ",
"           .++++++++++++++++++++++++++++++++++++++++.                      .+++++++++++++++++++++++++++++++++++++++.            ",
"           .++++++++++++++++++++++++++++++++++++++++.                      .+++++++++++++++++++++++++++++++++++++++.            ",
"          .+++++++++++++++++++++++++++++++++++++++++.                      .++++++++++++++++++++++++++++++++++++++.             ",
"          .+++++++++++++++++++++++++++++++++++++++++.                      .++++++++++++++++++++++++++++++++++++++.             ",
"          .+++++++++++++++++++++++++++++++++++++++++.                       .+++++++++++++++++++++++++++++++++++++.             ",
"          .+++++++++++++++++++++++++++++++++++++++++.                       .++++++++++++++++++++++++++++++++++++.              ",
"          .+++++++++++++++++++++++++++++++++++++++++.                        .+++++++++++++++++++++++++++++++++++.              ",
"          .+++++++++++++++++++++++++++++++++++++++++.                        .++++++++++++++++++++++++++++++++++.               ",
"          .++++++++++++++++++++++++++++++++++++++++.                          .+++++++++++++++++++++++++++++++++.               ",
"          .++++++++++++++++++++++++++++++++++++++++.                           .+++++++++++++++++++++++++++++++.                ",
"          .++++++++++++++++++++++++++++++++++++++++.                            .+++++++++++++++++++++++++++++.                 ",
"          .++++++++++++++++++++++++++++++++++++++++.                             .+++++++++++++++++++++++++++.                  ",
"           .+++++++++++++++++++++++++++++++++++++++.                              ..+++++++++++++++++++++++..                   ",
"           .++++++++++++++++++++++++++++++++++++++.                                 ..+++++++++++++++++++..                     ",
"           .++++++++++++++++++++++++++++++++++++++.                                   ...+++++++++++++...                       ",
"            .+++++++++++++++++++++++++++++++++++++.                                      .............                          ",
"             ++++++++++++++++++++++++++++++++++++.                                                                              ",
"             .+++++++++++++++++++++++++++++++++++.                                                                              ",
"              ++++++++++++++++++++++++++++++++++.                                                                               ",
"              .++++++++++++++++++++++++++++++++.                                                                                ",
"               .+++++++++++++++++++++++++++++++.                                                                                ",
"                .+++++++++++++++++++++++++++++.                                                                                 ",
"                 .++++++++++++++++++++++++++..                                                                                  ",
"                  ..++++++++++++++++++++++..                                                                                    ",
"                    ...+++++++++++++++++..                                                                                      ",
"                       ...+++++++++.....                                                                                        ",
"                          .........                                                                                             ",
"                                                                                                                                ",
"                                                                                                                                ",
"                                                                                                                                ",
"                                                                                                                                "};
